<svg width="256" height="256" xmlns="http://www.w3.org/2000/svg">
 <title/>

 <g>
  <title>background</title>
  <rect fill="none" id="canvas_background" height="402" width="582" y="-1" x="-1"/>
 </g>
 <g>
  <title fill="#6a4442">Layer 1</title>
  <path fill="#6a4442" id="svg_6" d="m188.063624,107.429432c2.149,-1.85 4.059,-5.34 2.729,-10.89a23.233,23.233 0 0 0 -2.869,-6.15a58.942,58.942 0 0 1 -4.879,-10.06a66.61,66.61 0 0 1 -3.769,-15.54a59.613,59.613 0 0 1 -0.08,-15.39c2.1,-17.03 5.428,-37.87 5.458,-38.07a1.994,1.994 0 0 0 -1.968,-2.32l-111.987,0a1.994,1.994 0 0 0 -1.969,2.32c0.03,0.2 3.359,21.04 5.458,38.07a59.613,59.613 0 0 1 -0.08,15.39a66.61,66.61 0 0 1 -3.769,15.54a58.942,58.942 0 0 1 -4.883,10.06a23.233,23.233 0 0 0 -2.869,6.15c-1.33,5.55 0.58,9.04 2.729,10.89a90.631,90.631 0 0 0 -12.606,24.9c-21.853,36.32 -14.506,68.86 26.152,115.99a1.991,1.991 0 0 0 1.51,0.69l92.632,0a1.991,1.991 0 0 0 1.51,-0.69c40.658,-47.13 48.006,-79.67 26.152,-115.99a90.631,90.631 0 0 0 -12.602,-24.9zm-61.381,111.43a123.673,123.673 0 0 0 -10.117,-31.41a25.47,25.47 0 0 0 20.254,-0.08a123.519,123.519 0 0 0 -10.137,31.49zm-60.202,-121.38a19.822,19.822 0 0 1 2.429,-5.07a61.646,61.646 0 0 0 5.189,-10.7a70.517,70.517 0 0 0 3.969,-16.39a63.482,63.482 0 0 0 0.088,-16.41c-1.7,-13.76 -4.188,-29.97 -5.117,-35.9l107.307,0c-0.93,5.93 -3.419,22.14 -5.118,35.9a63.482,63.482 0 0 0 0.09,16.41a70.517,70.517 0 0 0 3.969,16.39a61.646,61.646 0 0 0 5.189,10.7a19.822,19.822 0 0 1 2.429,5.07c1.42,5.91 -2.169,7.47 -2.6,7.64l-0.01,0a2.454,2.454 0 0 0 -0.24,0.1q-4.754,2.37 -9.517,4.34a1.951,1.951 0 0 0 -0.51,-1.97a1.994,1.994 0 0 0 -2.829,0.02c-0.02,0.02 -2.549,2.58 -5.858,5.57c-0.03,0.03 -0.07,0.06 -0.1,0.09c-5.139,4.64 -9.387,7.8 -11.966,8.9c-11.057,4.71 -24.2,2.88 -24.343,2.86a2.645,2.645 0 0 0 -0.276,-0.02l-3.919,0a2.645,2.645 0 0 0 -0.28,0.02c-0.14,0.02 -13.256,1.87 -24.343,-2.86c-2.579,-1.1 -6.828,-4.26 -11.966,-8.9c-0.03,-0.03 -0.07,-0.06 -0.1,-0.09c-3.309,-2.99 -5.838,-5.55 -5.858,-5.57a1.994,1.994 0 0 0 -2.829,-0.02a1.951,1.951 0 0 0 -0.51,1.97q-4.754,-1.965 -9.517,-4.34a2.454,2.454 0 0 0 -0.24,-0.1a0.389,0.389 0 0 1 -0.06,-0.02c-0.514,-0.2 -3.953,-1.78 -2.553,-7.62zm-11.047,38.11c7.948,2.96 36.369,15.4 54.374,47.54a1.877,1.877 0 0 0 0.39,0.72c7.328,13.29 12.866,29.9 14.486,50.53c-0.26,3.43 -0.42,6.98 -0.46,10.63l-42.928,0c-38.328,-44.65 -45.666,-75.54 -25.862,-109.42zm116.655,109.42l-43.867,0c0.04,-3.64 0.2,-7.15 0.47,-10.56c1.61,-20.66 7.138,-37.29 14.446,-50.59l0.03,-0.03a1.943,1.943 0 0 0 0.5,-0.91c17.988,-31.96 46.266,-44.35 54.288,-47.33c19.8,33.88 12.461,64.77 -25.867,109.42z"/>
  <path fill="#6a4442" id="svg_7" d="m126.692624,98.009432a2.006,2.006 0 0 0 2,-2l0,-5a2,2 0 1 0 -4,0l0,5a2.006,2.006 0 0 0 2,2z"/>
 </g>
</svg>