<svg width="24" height="24" xmlns="http://www.w3.org/2000/svg">
 <title/>

 <g>
  <title>background</title>
  <rect fill="none" id="canvas_background" height="402" width="582" y="-1" x="-1"/>
 </g>
 <g>
  <title fill="#6a4442">Layer 1</title>
  <path id="svg_1" fill="#6a4442" d="m12,15c-4.13184,0 -7.98,-1.21436 -10.29395,-3.249a0.99989,0.99989 0 1 1 1.32031,-1.502c1.95948,1.72268 5.31397,2.751 8.97364,2.751s7.01416,-1.02832 8.97363,-2.751a0.99989,0.99989 0 1 1 1.32031,1.502c-2.31394,2.03464 -6.1621,3.249 -10.29394,3.249z"/>
  <path id="svg_2" fill="#6a4442" d="m12,18a1,1 0 0 1 -1,-1l0,-3a1,1 0 0 1 2,0l0,3a1,1 0 0 1 -1,1z"/>
  <path id="svg_3" fill="#6a4442" d="m7.74854,17.66748a0.96422,0.96422 0 0 1 -0.17041,-0.01465a0.99922,0.99922 0 0 1 -0.81592,-1.15483l0.50488,-2.935a0.99981,0.99981 0 1 1 1.9707,0.33887l-0.50488,2.93506a1,1 0 0 1 -0.98437,0.83055z"/>
  <path id="svg_4" fill="#6a4442" d="m3.63574,16.30615a1.00123,1.00123 0 0 1 -0.94189,-1.33643l0.97852,-2.74463a1,1 0 1 1 1.88379,0.67188l-0.97852,2.74463a1.00085,1.00085 0 0 1 -0.9419,0.66455z"/>
  <path id="svg_5" fill="#6a4442" d="m16.25146,17.66748a1,1 0 0 1 -0.98437,-0.83057l-0.50488,-2.93506a0.99981,0.99981 0 0 1 1.9707,-0.33887l0.50488,2.93506a0.99922,0.99922 0 0 1 -0.81592,1.15479a0.96422,0.96422 0 0 1 -0.17041,0.01465z"/>
  <path id="svg_6" fill="#6a4442" d="m20.36426,16.30615a1.00038,1.00038 0 0 1 -0.94189,-0.66455l-0.97852,-2.7446a1,1 0 1 1 1.88379,-0.67187l0.97852,2.74463a1.00123,1.00123 0 0 1 -0.94189,1.33643l-0.00001,-0.00004z"/>
 </g>
</svg>