<svg width="48" height="48" xmlns="http://www.w3.org/2000/svg">

 <g>
  <title>background</title>
  <rect fill="none" id="canvas_background" height="402" width="582" y="-1" x="-1"/>
 </g>
 <g>
  <title fill="#6a4442">Layer 1</title>
  <path id="svg_2" fill="#6a4442" d="m2.352,9.649l11.903,0c1.314,0 2.38,-1.064 2.38,-2.381l0,-2.39c0,-1.313 -1.066,-2.38 -2.38,-2.38l-11.903,0c-1.314,0 -2.38,1.066 -2.38,2.38l0,2.39c0,1.317 1.066,2.381 2.38,2.381z"/>
  <path id="svg_3" fill="#6a4442" d="m45.647,12.025l-43.295,0c-1.314,0 -2.38,1.064 -2.38,2.381l0,4.909c0,1.313 1.066,2.381 2.38,2.381l2.566,0l0,19.192l-2.77,0l0,4.612l9.85,0l0,-4.612l-1.947,0l0,-19.192l28.157,0l0,19.192l-2.108,0l0,4.612l9.621,0l0,-4.612l-2.38,0l0,-19.192l2.306,0c1.316,0 2.381,-1.067 2.381,-2.381l0,-4.909c0,-1.316 -1.064,-2.381 -2.381,-2.381z"/>
 </g>
</svg>