<svg width="24.000000000000004" height="24.000000000000004" xmlns="http://www.w3.org/2000/svg">

 <g>
  <title>background</title>
  <rect fill="none" id="canvas_background" height="402" width="582" y="-1" x="-1"/>
 </g>
 <g>
  <title fill="#f9dac6">Layer 1</title>
  <path fill="#f9dac6" id="svg_1" d="m13.04,14.69l1.07,-2.14a1,1 0 0 1 1.2,-0.5l6,2a1,1 0 0 1 0.69,0.95l0,5a2,2 0 0 1 -2,2l-2,0a16,16 0 0 1 -16,-16l0,-2c0,-1.1 0.9,-2 2,-2l5,0a1,1 0 0 1 0.95,0.68l2,6a1,1 0 0 1 -0.5,1.21l-2.15,1.07a10.05,10.05 0 0 0 3.73,3.73l0.01,0zm-4.76,-10.69l-4.28,0l0,2a14,14 0 0 0 14,14l2,0l0,-4.28l-4.5,-1.5l-1.12,2.26a1,1 0 0 1 -1.3,0.46a12.04,12.04 0 0 1 -6.02,-6.01a1,1 0 0 1 0.46,-1.3l2.26,-1.14l-1.5,-4.49z" class="heroicon-ui"/>
 </g>
</svg>