<svg width="64" height="64" xmlns="http://www.w3.org/2000/svg">

 <g>
  <title>background</title>
  <rect fill="none" id="canvas_background" height="402" width="582" y="-1" x="-1"/>
 </g>
 <g>
  <title stroke="#6a4442" fill="#000000" fill-opacity="0">Layer 1</title>
  <path fill-opacity="0" stroke-miterlimit="10" stroke-linejoin="round" stroke-linecap="round" stroke-width="2" stroke="#6a4442" fill="#000000" id="svg_52" d="m44.98,45.74c2.56,-2.09 4.06,-5.41 3.62,-8.99l-1.99,-15.85c-0.92,-7.37 -7.18,-12.9 -14.61,-12.9s-13.69,5.53 -14.61,12.9l-1.98,15.86c-0.45,3.58 1.05,6.89 3.62,8.99" class="st22"/>
  <path fill-opacity="0" stroke-miterlimit="10" stroke-linejoin="round" stroke-linecap="round" stroke-width="2" stroke="#6a4442" fill="#000000" id="svg_55" d="m25,17.77c-0.16,0.07 -0.32,0.13 -0.47,0.22c-2.18,1.24 -3.53,3.56 -3.53,6.07l0,6.94c0,6.08 4.92,11 11,11s11,-4.92 11,-11l0,-7c0,-1.1 -0.9,-2 -2,-2l-4.19,0c-0.18,0 -0.35,-0.02 -0.52,-0.03c-0.1,0.01 -0.19,0.03 -0.29,0.03" class="st22"/>
  <path fill-opacity="0" stroke-miterlimit="10" stroke-linejoin="round" stroke-linecap="round" stroke-width="2" stroke="#6a4442" fill="#000000" id="svg_57" d="m47.5,28.04c1.32,0.09 2.62,0.51 3.66,1.33c0.65,0.51 1.51,0.75 2.44,0.57c1.16,-0.23 2.11,-1.17 2.33,-2.33c0.18,-0.93 -0.06,-1.79 -0.57,-2.44c-0.91,-1.18 -1.36,-2.66 -1.36,-4.15l0,-10.04c0,-1.49 0.45,-2.97 1.37,-4.15c0.51,-0.65 0.75,-1.51 0.57,-2.44c-0.23,-1.16 -1.17,-2.11 -2.33,-2.33c-0.93,-0.18 -1.79,0.06 -2.44,0.57c-1.18,0.92 -2.66,1.37 -4.15,1.37l-30.04,0c-1.49,0 -2.97,-0.45 -4.15,-1.37c-0.65,-0.51 -1.51,-0.75 -2.44,-0.57c-1.16,0.23 -2.1,1.17 -2.33,2.33c-0.18,0.93 0.06,1.79 0.57,2.44c0.92,1.18 1.37,2.66 1.37,4.15l0,10.04c0,1.49 -0.45,2.97 -1.37,4.15c-0.51,0.65 -0.75,1.51 -0.57,2.44c0.23,1.16 1.17,2.11 2.33,2.33c0.93,0.18 1.79,-0.06 2.44,-0.57c1.05,-0.82 2.34,-1.24 3.66,-1.33" class="st22"/>
  <path fill-opacity="0" stroke-miterlimit="10" stroke-linejoin="round" stroke-linecap="round" stroke-width="2" stroke="#6a4442" fill="#000000" id="svg_59" d="m26,40.21l0,5.79c0,3.31 2.69,6 6,6s6,-2.69 6,-6l0,-5.79" class="st22"/>
  <path fill-opacity="0" stroke-miterlimit="10" stroke-linejoin="round" stroke-linecap="round" stroke-width="2" stroke="#6a4442" fill="#000000" id="svg_61" d="m26,44l-11.46,2.86c-2.67,0.67 -4.54,3.07 -4.54,5.82l0,9.32l44,0l0,-9.32c0,-2.75 -1.87,-5.15 -4.54,-5.82l-11.46,-2.86" class="st22"/>
  <line fill-opacity="0" stroke-miterlimit="10" stroke-linejoin="round" stroke-linecap="round" stroke-width="2" stroke="#6a4442" fill="none" id="svg_62" y2="36" y1="36" x2="34" x1="30" class="st22"/>
  <line fill-opacity="0" stroke-miterlimit="10" stroke-linejoin="round" stroke-linecap="round" stroke-width="2" stroke="#6a4442" fill="none" id="svg_63" y2="26" y1="26" x2="39" x1="36" class="st22"/>
  <line fill-opacity="0" stroke-miterlimit="10" stroke-linejoin="round" stroke-linecap="round" stroke-width="2" stroke="#6a4442" fill="none" id="svg_64" y2="26" y1="26" x2="28" x1="25" class="st22"/>
  <line fill-opacity="0" stroke-miterlimit="10" stroke-linejoin="round" stroke-linecap="round" stroke-width="2" stroke="#6a4442" fill="none" id="svg_67" y2="58" y1="62" x2="46" x1="46" class="st22"/>
  <line fill-opacity="0" stroke-miterlimit="10" stroke-linejoin="round" stroke-linecap="round" stroke-width="2" stroke="#6a4442" fill="none" id="svg_68" y2="58" y1="62" x2="18" x1="18" class="st22"/>
 </g>
</svg>